<svg width="23" height="24" viewBox="0 0 23 24" fill="none" xmlns="http://www.w3.org/2000/svg">
<path d="M11.5047 6.6094C8.52341 6.6094 6.11872 9.01408 6.11872 11.9953C6.11872 14.9766 8.52341 17.3813 11.5047 17.3813C14.4859 17.3813 16.8906 14.9766 16.8906 11.9953C16.8906 9.01408 14.4859 6.6094 11.5047 6.6094ZM11.5047 15.4969C9.5781 15.4969 8.0031 13.9266 8.0031 11.9953C8.0031 10.0641 9.57341 8.49377 11.5047 8.49377C13.4359 8.49377 15.0062 10.0641 15.0062 11.9953C15.0062 13.9266 13.4312 15.4969 11.5047 15.4969V15.4969ZM18.3672 6.38909C18.3672 7.08752 17.8047 7.64534 17.1109 7.64534C16.4125 7.64534 15.8547 7.08284 15.8547 6.38909C15.8547 5.69534 16.4172 5.13284 17.1109 5.13284C17.8047 5.13284 18.3672 5.69534 18.3672 6.38909ZM21.9343 7.66409C21.8547 5.98127 21.4703 4.49065 20.2375 3.26252C19.0093 2.0344 17.5187 1.65002 15.8359 1.56565C14.1015 1.46721 8.9031 1.46721 7.16872 1.56565C5.4906 1.64534 3.99997 2.02971 2.76716 3.25784C1.53435 4.48596 1.15466 5.97659 1.07029 7.6594C0.971851 9.39377 0.971851 14.5922 1.07029 16.3266C1.14998 18.0094 1.53435 19.5 2.76716 20.7281C3.99997 21.9563 5.48591 22.3406 7.16872 22.425C8.9031 22.5235 14.1015 22.5235 15.8359 22.425C17.5187 22.3453 19.0093 21.961 20.2375 20.7281C21.4656 19.5 21.85 18.0094 21.9343 16.3266C22.0328 14.5922 22.0328 9.39846 21.9343 7.66409V7.66409ZM19.6937 18.1875C19.3281 19.1063 18.6203 19.8141 17.6968 20.1844C16.314 20.7328 13.0328 20.6063 11.5047 20.6063C9.97653 20.6063 6.6906 20.7281 5.31247 20.1844C4.39372 19.8188 3.68591 19.111 3.3156 18.1875C2.76716 16.8047 2.89372 13.5235 2.89372 11.9953C2.89372 10.4672 2.77185 7.18127 3.3156 5.80315C3.68122 4.8844 4.38904 4.17659 5.31247 3.80627C6.69528 3.25784 9.97653 3.3844 11.5047 3.3844C13.0328 3.3844 16.3187 3.26252 17.6968 3.80627C18.6156 4.1719 19.3234 4.87971 19.6937 5.80315C20.2422 7.18596 20.1156 10.4672 20.1156 11.9953C20.1156 13.5235 20.2422 16.8094 19.6937 18.1875Z" fill="black"/>
</svg>
