<svg width="32" height="32" viewBox="0 0 32 32" fill="none" xmlns="http://www.w3.org/2000/svg">
<path d="M16.0001 22.4C19.5347 22.4 22.4001 19.5346 22.4001 16C22.4001 12.4654 19.5347 9.59998 16.0001 9.59998C12.4655 9.59998 9.6001 12.4654 9.6001 16C9.6001 19.5346 12.4655 22.4 16.0001 22.4Z" fill="black"/>
<path d="M16 6.40003C15.7171 6.40003 15.4458 6.28765 15.2457 6.08761C15.0457 5.88757 14.9333 5.61626 14.9333 5.33336V3.20003C14.9333 2.91713 15.0457 2.64582 15.2457 2.44578C15.4458 2.24574 15.7171 2.13336 16 2.13336C16.2829 2.13336 16.5542 2.24574 16.7542 2.44578C16.9543 2.64582 17.0666 2.91713 17.0666 3.20003V5.33336C17.0666 5.61626 16.9543 5.88757 16.7542 6.08761C16.5542 6.28765 16.2829 6.40003 16 6.40003ZM16 29.8667C15.7171 29.8667 15.4458 29.7543 15.2457 29.5543C15.0457 29.3542 14.9333 29.0829 14.9333 28.8V26.6667C14.9333 26.3838 15.0457 26.1125 15.2457 25.9124C15.4458 25.7124 15.7171 25.6 16 25.6C16.2829 25.6 16.5542 25.7124 16.7542 25.9124C16.9543 26.1125 17.0666 26.3838 17.0666 26.6667V28.8C17.0666 29.0829 16.9543 29.3542 16.7542 29.5543C16.5542 29.7543 16.2829 29.8667 16 29.8667ZM5.3333 17.0667H3.19997C2.91707 17.0667 2.64576 16.9543 2.44572 16.7543C2.24568 16.5542 2.1333 16.2829 2.1333 16C2.1333 15.7171 2.24568 15.4458 2.44572 15.2458C2.64576 15.0457 2.91707 14.9334 3.19997 14.9334H5.3333C5.6162 14.9334 5.88751 15.0457 6.08755 15.2458C6.28759 15.4458 6.39997 15.7171 6.39997 16C6.39997 16.2829 6.28759 16.5542 6.08755 16.7543C5.88751 16.9543 5.6162 17.0667 5.3333 17.0667ZM28.8 17.0667H26.6666C26.3837 17.0667 26.1124 16.9543 25.9124 16.7543C25.7123 16.5542 25.6 16.2829 25.6 16C25.6 15.7171 25.7123 15.4458 25.9124 15.2458C26.1124 15.0457 26.3837 14.9334 26.6666 14.9334H28.8C29.0829 14.9334 29.3542 15.0457 29.5542 15.2458C29.7543 15.4458 29.8666 15.7171 29.8666 16C29.8666 16.2829 29.7543 16.5542 29.5542 16.7543C29.3542 16.9543 29.0829 17.0667 28.8 17.0667ZM6.94397 26.1227C6.66261 26.1187 6.39424 26.0037 6.1973 25.8027C5.99863 25.6028 5.88712 25.3325 5.88712 25.0507C5.88712 24.7689 5.99863 24.4986 6.1973 24.2987L7.7013 22.784C7.90216 22.5832 8.17458 22.4703 8.45863 22.4703C8.74269 22.4703 9.01511 22.5832 9.21597 22.784C9.41683 22.9849 9.52967 23.2573 9.52967 23.5414C9.52967 23.8254 9.41683 24.0978 9.21597 24.2987L7.7013 25.8027C7.60251 25.9035 7.4847 25.9837 7.3547 26.0386C7.2247 26.0935 7.0851 26.1221 6.94397 26.1227ZM23.5413 9.52536C23.4009 9.52617 23.2618 9.49927 23.1318 9.44618C23.0018 9.3931 22.8836 9.31489 22.784 9.21603C22.684 9.11687 22.6046 8.99889 22.5505 8.86891C22.4963 8.73893 22.4684 8.59951 22.4684 8.4587C22.4684 8.31788 22.4963 8.17846 22.5505 8.04848C22.6046 7.9185 22.684 7.80052 22.784 7.70136L24.2986 6.19736C24.5027 6.02261 24.7652 5.9313 25.0336 5.94167C25.3021 5.95204 25.5567 6.06333 25.7467 6.25329C25.9367 6.44326 26.048 6.69792 26.0583 6.96637C26.0687 7.23483 25.9774 7.49731 25.8026 7.70136L24.2986 9.21603C24.199 9.31489 24.0808 9.3931 23.9508 9.44618C23.8208 9.49927 23.6817 9.52617 23.5413 9.52536ZM25.056 26.1227C24.9148 26.1221 24.7752 26.0935 24.6452 26.0386C24.5152 25.9837 24.3974 25.9035 24.2986 25.8027L22.784 24.2987C22.6845 24.1992 22.6056 24.0812 22.5518 23.9512C22.498 23.8213 22.4703 23.682 22.4703 23.5414C22.4703 23.4007 22.498 23.2614 22.5518 23.1315C22.6056 23.0016 22.6845 22.8835 22.784 22.784C22.8834 22.6846 23.0015 22.6057 23.1314 22.5519C23.2614 22.498 23.4007 22.4703 23.5413 22.4703C23.682 22.4703 23.8212 22.498 23.9512 22.5519C24.0811 22.6057 24.1992 22.6846 24.2986 22.784L25.8026 24.2987C26.0013 24.4986 26.1128 24.7689 26.1128 25.0507C26.1128 25.3325 26.0013 25.6028 25.8026 25.8027C25.6057 26.0037 25.3373 26.1187 25.056 26.1227ZM8.45863 9.52536C8.31825 9.52617 8.17909 9.49927 8.04913 9.44618C7.91917 9.3931 7.80097 9.31489 7.7013 9.21603L6.1973 7.70136C6.02255 7.49731 5.93124 7.23483 5.94161 6.96637C5.95198 6.69792 6.06327 6.44326 6.25323 6.25329C6.4432 6.06333 6.69786 5.95204 6.96631 5.94167C7.23477 5.9313 7.49725 6.02261 7.7013 6.19736L9.21597 7.70136C9.31595 7.80052 9.3953 7.9185 9.44945 8.04848C9.50361 8.17846 9.53149 8.31788 9.53149 8.4587C9.53149 8.59951 9.50361 8.73893 9.44945 8.86891C9.3953 8.99889 9.31595 9.11687 9.21597 9.21603C9.1163 9.31489 8.99809 9.3931 8.86813 9.44618C8.73817 9.49927 8.59901 9.52617 8.45863 9.52536Z" fill="black"/>
</svg>
