<svg width="24" height="24" viewBox="0 0 24 24" fill="none" xmlns="http://www.w3.org/2000/svg">
<path d="M18 15C17.1717 15 16.5 15.6717 16.5 16.5V21H3V7.5H7.5C8.32828 7.5 9 6.82875 9 6C9 5.17125 8.32828 4.5 7.5 4.5H3C1.34297 4.5 0 5.84297 0 7.5V21C0 22.6566 1.34297 24 3 24H16.5C18.157 24 19.5 22.6566 19.5 21V16.5C19.5 15.6703 18.8297 15 18 15ZM22.875 0H16.5C15.8934 0 15.3459 0.365484 15.1144 0.925781C14.8815 1.48688 15.0104 2.13141 15.4396 2.56078L17.3812 4.5L7.94062 13.9406C7.35469 14.5266 7.35469 15.4758 7.94062 16.0617C8.23125 16.3547 8.61563 16.5 9 16.5C9.38437 16.5 9.76781 16.3535 10.0603 16.0605L19.5 6.62344L21.4397 8.56312C21.8689 8.99161 22.5122 9.11812 23.0747 8.88834C23.6344 8.65312 24 8.10469 24 7.5V1.125C24 0.503438 23.4984 0 22.875 0Z" fill="black"/>
</svg>
