<svg xmlns="http://www.w3.org/2000/svg" width="2730.662" height="2730.662" fill-rule="evenodd" clip-rule="evenodd" image-rendering="optimizeQuality" shape-rendering="geometricPrecision" text-rendering="geometricPrecision" viewBox="0 0 28444 28444"><path fill="#ffb700" d="M3762 7278h20875v13889H3762z"/><path fill="#ff5b00" d="m4596 14222 2087-6111h2086v12222H6683z"/><path fill="#005641" d="M4596 8111h2087v12222H4596z"/><path fill="#8d2029" d="M9604 8111h14200v12222H9604z"/><path fill="#ffb700" d="M22111 18066s157 320 331 451c258 193 786 179 1010 405 269 266-21 618-19 648l15 186s-181 2-257 14c-115 18-159 111-373 97-537-35-515-518-546-932-27-157-89-363-125-520-30-135-37-350-37-350z"/><path d="M22142 18175c5 72 15 166 30 236 14 60 31 127 49 197 29 111 59 226 76 324v2c3 36 5 73 7 110 23 378 47 768 515 799 128 8 191-23 251-54 36-19 71-36 117-43 60-9 181-13 234-14l-13-160c-1-13 6-25 25-59 63-110 208-369 1-574-115-116-321-168-521-218-178-45-363-92-487-185-117-88-224-255-286-362zm718 1719c-14 0-28 0-43-1-511-33-538-464-561-845-2-36-4-73-7-109-16-95-46-209-75-318-19-71-36-138-50-199-31-135-37-345-38-354l25-6 17-12 7 7v4c20 40 166 321 322 437 116 87 295 132 469 176 206 52 419 106 544 231 234 232 69 523 7 633-7 13-16 28-18 34l17 208h-26c-2 0-180 2-254 14-38 6-68 21-102 38-56 28-119 61-233 61z"/><path fill="#ffb700" d="M11297 18066s-157 320-331 451c-258 193-786 179-1010 405-269 266 21 618 18 648l-15 186s181 2 257 14c115 18 159 111 373 97 537-35 515-518 546-932 27-157 89-363 125-520 30-135 37-350 37-350z"/><path d="M9986 19732c54 1 174 5 235 14 46 7 80 25 117 43 53 27 108 55 211 55 13 0 26 0 40-1 468-30 492-421 515-799 2-37 5-74 7-110v-2c17-98 47-213 76-324 18-70 36-137 49-197 16-70 25-164 30-236-61 107-169 275-286 362-124 93-308 140-487 185-199 50-406 102-521 218-208 206-62 464 1 574 19 33 26 46 25 59l-13 160zm562 162c-114 0-177-32-233-61-34-17-64-33-102-38-74-11-252-14-254-14h-26l17-208c-3-6-11-21-18-34-62-110-227-401 7-633 124-125 337-179 543-231 174-44 353-89 469-176 167-125 322-439 324-442l46 12c0 9-7 219-37 354-14 61-31 128-50 199-29 110-58 223-75 318-3 36-5 72-7 109-23 380-50 812-561 845-15 1-30 1-43 1z"/><path fill="#ffb700" d="M22111 10378s157-320 331-451c258-193 786-179 1010-405 269-266-21-618-19-648l15-186s-181-2-257-14c-115-18-159-111-373-97-537 35-515 518-546 932-27 157-89 363-125 520-30 135-37 350-37 350z"/><path d="M22860 8600c-13 0-26 0-40 1-468 30-492 421-515 799-2 37-5 74-7 110v2c-17 98-47 213-76 324-18 70-36 137-49 197-16 71-25 164-30 236 61-107 169-275 286-362 124-93 308-140 487-185 200-50 406-102 521-218 208-206 62-464-1-574-19-33-26-46-25-59l13-160c-53-1-174-5-234-14-46-7-80-25-117-43-53-27-108-55-211-55zm-727 1860-50-81 4-8c1-35 9-224 37-349 14-61 31-128 50-199 29-110 58-223 75-318 3-36 5-72 7-109 24-380 50-812 561-845 143-9 214 27 276 59 34 17 64 33 102 38 74 11 252 14 254 14h26l-17 208c3 6 11 21 18 34 62 110 227 401-7 633-125 125-338 179-544 231-174 44-353 89-469 176-156 117-301 398-322 437l-3 76z"/><path fill="#ffb700" d="M11297 10378s-157-320-331-451c-258-193-786-179-1010-405-269-266 21-618 18-648l-15-186s181-2 257-14c115-18 159-111 373-97 537 35 515 518 546 932 27 157 89 363 125 520 30 135 37 350 37 350z"/><path d="m9986 8713 13 160c1 13-6 25-25 59-62 110-208 369-1 574 115 116 321 168 521 218 178 45 363 92 487 185 117 88 225 255 286 362-5-72-14-165-30-236-14-60-31-127-49-197-29-111-59-226-76-324v-2c-3-36-5-73-7-110-23-378-47-768-515-799-128-8-191 23-251 54-36 19-71 36-117 43-60 9-181 13-235 14zm1311 1690h-24l-1-18c-20-40-166-321-322-437-116-87-295-132-469-176-206-52-419-106-544-231-234-232-69-523-7-633 7-13 16-28 18-34l-17-208h26c2 0 180-2 254-14 38-6 68-21 102-38 62-32 134-68 276-59 511 33 538 464 561 845 2 36 4 73 7 109 16 95 46 209 75 318 18 71 36 138 50 199 28 125 36 314 37 349l15 31h-40z"/><path fill="#ffb700" d="m14302 18271 94-54 40 55c54 73 203 72 301-2l76-56 63 56c83 74 238 74 337 0 69-52 79-53 125-13 27 23 108 50 178 59 127 17 129 16 204-96 62-94 72-131 57-222-10-60-20-157-24-215-6-105-5-106 148-160 85-30 183-69 218-88 61-33 230-232 230-271 0-10-66-26-147-35-321-36-375-208-167-529 340-522 546-1031 547-1355 1-145 9-193 27-162 76 129-60 668-267 1056l-83 156 79-18c44-10 300-118 570-240 738-334 992-400 1470-380 400 17 571 95 854 392 150 157 294 269 558 435 562 352 586 382 612 796 27 419 14 442-304 512-271 60-441 186-487 362-24 94 27 96 164 9l100-64 45 64c59 85 183 85 286 1l78-64 80 64c124 99 289 75 335-49 9-24 33-16 81 26 91 79 323 112 348 51 10-24-9-82-40-130-135-203-177-299-179-409-2-153 43-227 218-352 212-152 277-347 116-347-99 0-200-88-264-231-130-291-105-618 91-1161 198-552 220-654 221-1023 1-298-7-350-75-514-42-100-126-249-187-331l-112-149 143-119c438-363 348-957-179-1185-161-70-202-76-484-74-170 1-428 23-575 50-149 27-402 48-575 49-275 1-322-6-428-62-111-59-130-87-151-223-4-28-24-56-43-62-38-12-211 139-237 206-13 33-23 31-60-13-25-29-59-96-77-149-44-133 10-232 166-307l121-58-71-44c-147-91-398-29-489 122-26 43-54 78-62 78-9 0-57-41-108-90-190-186-125-461 130-545 136-45 256-11 281 80 38 138 157-43 135-207-14-109-12-113 63-113 105 0 328 138 397 245 80 125 74 321-14 467l-69 115 91-18c133-27 262-109 328-209 69-106 77-312 15-423-59-108-53-125 35-88 149 62 229 130 289 247 54 105 57 132 28 241-18 68-58 157-89 198-48 64-50 75-11 75 72 0 221-68 274-124 27-29 66-99 87-156l38-104 44 79c62 112 182 213 329 276 158 68 224 71 141 8-56-43-158-344-127-373 18-17 233 148 477 367 231 208 377 276 590 276 272 0 430-236 308-460-71-130-230-148-322-37-43 51-54 92-42 146 15 66 9 75-51 75-79 0-235-101-511-332-421-352-934-650-1303-759-237-70-744-97-985-53-261 48-570 197-738 357-298 283-303 661-13 1004l83 98-56 87c-82 127-75 298 17 424 41 56 82 101 91 101s20-36 23-79c8-110 55-184 137-213 73-26 120-14 456 120 353 141 932 150 1549 26 302-61 659-57 815 8 287 120 354 434 143 671-91 103-180 145-476 226-225 62-279 66-791 61-438-4-595 4-774 41-194 40-313 45-883 30l-659-17 73 60c40 33 97 74 126 91 50 29 48 32-26 60-43 16-140 29-214 29h-135l-18 115c-10 63-9 137 2 164 16 40 10 46-32 30-28-10-108-31-176-45-68-15-160-44-204-66-74-36-82-35-110 13-24 43-253 214-287 214-5 0-12-33-16-73-3-40-36-145-73-232-37-88-76-183-86-212-16-44-23-46-41-13-12 22-30 82-40 133s-44 134-77 184l-59 92-38-78c-40-84-107-171-132-171-8 0-22 27-31 60-18 69-177 259-216 259-14 0-26-54-26-119 0-66-13-119-28-119s-28 17-28 38c0 51-136 201-181 201-20 0-52 18-71 40-50 57-91 49-70-14 10-29 3-98-14-153-18-55-37-113-42-129-7-21-55-15-158 18-166 53-222 44-137-23 31-24 79-109 106-189 27-79 67-149 88-156 30-9 29 2-7 50-25 34-46 81-46 103s-19 75-43 117c-23 42-38 81-33 86s69-19 141-53l131-63 1 56c0 31 16 112 35 181l35 125 89-41c91-42 177-191 177-307 0-57 33-48 46 12 4 18 24 85 46 149l39 116 61-73c34-40 76-120 93-176 31-98 80-140 80-69 0 51 140 235 167 219 13-8 39-77 58-153 39-160 102-268 141-245 15 9 21 26 13 38s24 116 72 230c47 115 95 230 105 257 17 42 33 36 134-53 63-56 120-118 127-138 10-31 24-30 83 7 82 51 359 134 381 113 8-8 16-80 18-162l4-148 80 17c44 9 136 9 205-1l125-18-111-76c-61-42-123-96-138-121-15-26-70-48-132-53-167-14-463-180-463-260 0-15 41 10 91 56 111 102 266 166 400 166h101l-62-83c-36-48-68-138-76-213-12-119-25-138-148-224-74-52-167-129-205-172l-70-78-35 93c-20 51-43 93-53 93s-47-30-83-66-73-66-82-66-41 49-71 109l-55 109-43-63c-23-35-79-96-123-136s-67-73-52-73c16 0 70 42 121 93l93 93 38-68c22-40 31-102 21-153-15-73-13-77 15-31 18 29 72 85 120 124l88 71 61-111c60-111 61-111 88-45 37 88 303 306 529 434 35 20 20-48-44-203-17-41-31-115-31-165 0-73-21-106-115-177-135-103-179-176-205-343-10-67-34-142-53-167-28-36-32-16-25 109 5 84-6 189-24 233l-33 80-26-66c-14-36-77-100-140-141s-107-82-98-90 73 29 143 83c106 83 130 91 145 55 17-43 0-229-33-359-17-65-15-64 65 16 59 59 92 129 117 252 32 156 48 182 193 309 87 76 162 134 167 129 6-5 16-202 24-437 15-451-2-558-111-698l-56-72 88-95c114-123 167-222 190-357l19-110-99 94c-81 77-120 94-214 94-93 0-129-16-192-82-75-80-208-157-337-195-47-14-63-8-63 24 0 23-26 91-58 151l-58 108-122-120c-75-74-163-131-229-149-168-44-178-40-178 86 0 190-81 226-228 99-111-96-204-117-415-94l-163 18 29 74c25 62 19 87-34 157-85 113-196 163-367 163-79 0-177 16-219 36s-145 43-230 51-175 23-201 32c-40 15-45 3-32-89 20-140-78-243-230-243-197 0-289 177-211 410 15 45 34 116 43 157 9 43 98 158 207 267 105 105 204 214 220 243s70 74 120 102l90 50-12-96c-13-106 10-123 66-48 20 27 71 70 114 96 67 41 77 42 77 6 0-23 14-75 30-116l30-75 53 102c29 56 123 183 209 282 167 193 268 408 216 458-21 20-79 19-198-5-92-19-206-28-254-22-96 13-104 1-45-73 63-78 53-91-70-91-142 0-496-68-631-122-132-52-162-39-201 86-17 56-49 158-71 227l-39 124 143-14c78-8 179-25 224-38s86-21 91-16-15 53-44 108l-53 99 89-18c49-10 123-34 164-54 71-35 77-32 134 58 69 111 125 107 137-11 13-122 53-104 128 58 73 155 148 210 163 118 5-31 44-80 87-111 87-61 152-43 190 53 39 99-48 202-300 355-505 306-798 725-882 1258-76 481 160 979 634 1336 227 171 587 351 564 282-97-292-94-850 5-944 15-14 10 44-11 129-79 318-45 571 158 1164 183 536 158 766-101 917-83 49-137 57-360 54-243-3-269 2-347 64-75 60-173 258-173 350 0 50 55 43 164-20z"/><path d="M16728 12610c18 16 29 42 38 65 22 54 198 212 400 342-7-18-16-40-26-65-20-48-36-131-36-188 0-46-4-63-91-130-108-82-165-150-198-251-4 23-10 43-17 59l-70 167zm-1606 1142 1 151c0 20 13 93 33 165l16 57 25-11c70-32 142-159 142-252 0-96 68-99 76-99 20 0 70 10 89 98 3 12 21 73 44 143l4 13c27-37 60-101 74-145 21-67 60-146 122-146 8 0 74 3 75 93 6 24 49 88 84 130 7-20 14-46 22-76 27-110 87-294 189-294 15 0 29 4 42 11 22 13 38 34 44 58 3 15 3 30-1 44 5 25 26 95 67 195 36 88 73 177 93 225 19-15 40-34 51-44 60-53 102-101 111-115 19-52 56-60 77-60 28 0 53 13 94 38 58 36 223 88 301 103 3-24 5-59 6-102l5-220 150 31c29 6 100 7 156 1-45-32-114-88-138-127-6-6-36-22-86-26-163-14-518-182-518-320 0-36 28-64 65-64 14 0 44 0 127 76 94 86 226 144 340 150-38-58-70-149-78-229-10-98-10-102-123-180-79-55-174-135-215-182l-4-4c-46 121-81 132-109 132-14 0-43 0-126-84-10-10-19-19-27-26-8 14-18 32-30 54l-101 200-100-147c-21-31-73-88-114-125-67-60-87-99-72-137 10-25 33-41 61-41 36 0 91 37 164 111l36 36c15-28 20-75 13-110-12-58-17-85 4-111l18-22 30-1c38 0 55 29 74 59 13 21 61 72 107 109l32 26 26-48c48-87 66-120 112-121l-54-139c-6-16-53-71-117-113-121-79-124-115-126-132-2-20 5-39 20-52 12-11 28-18 45-18 34 0 93 33 176 97 22 17 40 31 54 41 0-62-12-179-38-282-10-41-18-70 3-98 12-15 30-24 50-24 33 0 50 17 112 80 68 68 105 147 133 283 29 142 39 158 173 276 29 26 55 48 77 66 4-74 10-188 15-331 15-461-6-541-98-659l-87-112 123-132c85-92 133-167 159-256-72 61-124 78-219 78-109 0-162-23-236-101-66-70-186-140-301-176-15 61-57 139-60 143l-96 179-179-177c-67-66-146-118-202-133-40-11-78-20-101-23-1 16-1 40-1 50 0 204-92 234-146 234-52 0-112-29-181-89-76-66-137-88-241-88-35 0-77 3-128 8l-85 9c36 90 16 139-41 216-97 129-225 187-415 187-74 0-163 16-193 30-53 26-169 49-250 57-89 9-169 23-185 29-11 4-27 9-43 9-22 0-42-9-56-25-27-31-22-72-13-138 7-47-4-89-31-120-30-35-80-54-140-54-63 0-112 22-143 64-43 60-48 157-12 266 15 47 36 120 45 163 6 21 70 116 191 237 79 79 206 212 230 256 8 13 43 47 84 71-5-59 1-92 22-116 14-16 33-25 54-25 42 0 74 35 100 70 13 18 55 54 92 78 7-27 16-55 25-78l79-196 113 218c24 46 110 166 201 271 122 141 323 436 212 541-29 27-69 30-96 30-36 0-85-7-155-20-66-13-150-23-204-23-16 0-25 1-30 1-26 4-45 5-60 5-42 0-70-15-84-44-22-46 10-90 39-126h-18c-150 0-511-70-654-126-27-11-65-25-85-25h-5c-3 2-13 12-32 72-17 56-50 159-71 227l-12 38 52-5c74-7 172-24 213-36 16-5 69-20 100-20 20 0 36 6 49 18 32 30 27 67-25 165 39-11 84-27 112-40 32-16 57-27 85-27 59 0 89 47 126 107 9 15 17 25 23 33 1-5 2-12 3-19 3-33 14-133 92-133 52 0 91 45 150 172 23 49 43 81 59 102 20-44 62-90 102-118 44-31 86-46 125-46s112 16 155 127c34 86 0 165-70 239 25 1 46 14 56 36 21 41-8 80-33 114-21 28-34 60-35 69 0 27-13 65-27 97l6-3 216-104zm-709 4386 72 98c14 18 46 30 84 30 47 0 96-16 133-44l115-86 100 89c29 26 74 40 123 40 51 0 102-16 139-43 44-33 74-53 111-53 40 0 68 24 89 42 12 11 75 36 147 45 30 4 56 7 73 7 20 0 22 0 73-77 57-85 60-108 48-179-10-62-21-162-24-222-8-146 26-163 189-220 90-31 181-69 209-84 35-19 126-120 172-184-18-3-40-7-67-10-171-19-276-75-322-171-52-109-15-257 111-450 335-514 536-1009 537-1322 1-144 1-231 78-231 14 0 42 5 61 39 97 165-63 734-265 1115l-17 32c87-34 269-110 505-218 681-309 959-388 1350-388 46 0 94 1 147 3 417 18 601 102 895 410 145 152 288 264 546 425 577 361 612 408 641 843 28 435 10 495-351 575-168 37-378 119-436 300 16-8 38-20 68-39l149-96 78 112c22 31 54 38 77 38 39 0 82-18 121-49l116-94 118 94c39 31 84 48 128 48 26 0 89-7 113-71 12-32 40-52 73-52 35 0 67 22 104 54 42 37 142 68 218 68 13 0 23-1 30-2-4-16-14-41-31-66-143-214-187-318-189-442-3-175 52-265 243-402 154-110 190-215 180-233-1-1-10-5-29-5-125 0-244-100-319-267-137-308-112-646 89-1206 196-547 217-641 217-1003 1-290-6-336-70-491-39-95-122-241-180-318l-146-195 188-155c190-158 282-370 252-583-31-217-183-400-417-501-138-60-176-70-390-70h-70c-167 1-420 23-564 49-152 27-409 49-586 50h-48c-240 0-297-10-409-69-127-68-158-113-182-267 0-1 0-2-1-4-50 30-150 122-164 160-19 50-51 61-74 61-40 0-66-32-88-57-30-35-68-108-88-169-37-113-33-270 197-380l20-9c-31-14-68-21-108-21-113 0-225 56-273 135-64 106-93 107-113 107s-41 0-151-108c-105-103-149-236-119-366 30-131 129-233 272-280 46-15 90-23 133-23 103 0 183 45 216 119 18-37 34-98 26-159-9-69-15-114 15-149 28-32 69-32 108-32 125 0 368 148 448 273 93 144 88 359-10 526 101-31 195-97 244-172 57-87 63-270 13-361-38-69-61-117-36-160 13-22 37-35 65-35 20 0 44 6 81 22 163 68 253 145 320 276 60 118 65 161 32 284-15 57-43 125-71 175 56-22 117-56 143-83 19-20 55-83 74-136l84-228 108 195c56 101 165 192 300 250 3 1 6 3 9 4-45-95-81-222-84-280-1-22 0-54 24-77 12-11 28-18 45-18 75 0 354 241 514 384 220 197 353 261 549 261 113 0 210-49 258-130 42-72 41-159-3-241-27-49-72-79-121-79-38 0-75 18-102 52-34 41-37 63-30 94 8 35 18 79-10 114-27 34-71 34-100 34-81 0-206-59-550-346-416-347-919-640-1282-747-146-43-412-72-661-72-121 0-224 7-297 20-250 46-547 189-707 342-273 260-276 604-8 922l112 132-80 125c-69 107-63 250 15 356 3 5 7 9 10 14 18-113 78-193 172-227 20-7 46-15 79-15 70 0 157 30 419 135 178 71 422 109 707 109 251 0 530-30 808-86 143-29 304-45 454-45 169 0 310 20 397 56 153 64 260 184 293 329 34 149-13 308-128 438-101 114-195 159-505 244-191 52-266 65-564 65-68 0-147-1-243-2-423-4-581 3-761 40-127 26-227 39-455 39-101 0-229-2-442-8l-480-12c20 15 39 27 52 35 29 16 68 39 64 85l54 37-79 11c-18 14-44 24-73 35-56 21-163 33-235 33h-84l-10 64c-10 61-6 119-2 132 8 20 23 57 1 91-13 19-34 30-58 30-14 0-29-3-51-11-23-8-97-28-168-43-74-16-170-47-218-70-6-3-19-9-29-14 0 1-1 2-1 2-26 46-270 244-339 244-66 0-72-77-76-128-2-26-29-120-69-213-17-41-35-84-50-121l-3 15c-11 58-49 149-85 206l-117 182-84-175c-18-37-40-72-59-98-41 88-188 280-265 280-50 0-78-43-85-133-52 67-126 131-176 133-6 2-19 9-28 19-34 39-69 59-103 59-25 0-48-11-62-32-18-25-21-59-7-100 4-12 2-64-14-115l-1-3c-11-34-22-69-31-94-18 3-46 10-93 25-78 25-134 37-170 37-58 0-76-34-81-49-19-55 36-98 59-116 15-11 58-78 86-160 8-23 22-60 40-96-41 29-85 57-131 85-493 299-772 697-854 1216-72 458 156 936 611 1278 151 114 342 218 446 263-69-296-76-805 45-920 28-26 72-23 95 6 13 17 29 38-6 182-76 305-42 548 156 1130 164 482 196 799-128 989-86 50-150 63-323 63h-68c-32 0-60-1-85-1-159 0-171 10-223 52-52 41-126 181-146 266 15-6 35-16 62-31l148-85zm5227 248c-29 0-54-12-71-33-28-36-20-83-11-115 52-200 236-340 532-406 282-62 282-62 256-449-25-385-26-400-584-749-267-167-416-284-570-444-270-284-430-357-813-373-52-2-98-3-142-3-375 0-630 74-1300 378-240 109-526 231-581 244l-100 23c-51 90-107 182-167 274-99 152-134 267-103 333 26 54 102 89 226 103 152 17 200 40 200 95 0 79-203 292-262 324-43 23-149 65-227 92-50 17-98 34-109 44-2 9-1 35 1 56 3 56 14 151 23 209 18 107 4 159-67 265-56 84-87 131-173 131-25 0-54-4-88-8-73-9-168-38-210-73-6-5-10-8-12-10-11 7-30 20-37 26-58 43-133 67-210 67-80 0-152-25-203-71l-27-24-36 27c-58 43-132 68-205 68-78 0-144-29-181-78l-8-11-48 28c-72 41-123 61-162 61-54 0-93-38-93-93 0-110 106-325 196-397 83-66 128-78 298-78 25 0 54 0 87 1h67c161 0 200-10 262-46 201-118 267-281 75-846-37-108-68-206-95-294-4 1-9 1-14 1-95 0-401-170-586-310-490-370-736-891-657-1393 86-549 393-986 910-1300 279-169 291-242 275-281-9-23-24-50-43-50-8 0-26 3-56 24-35 25-59 60-62 71-14 88-73 95-91 95-62 0-124-66-185-198-7-15-14-29-20-40-20 94-72 109-104 109-48 0-93-36-138-109-8-13-22-36-31-48-8 3-19 9-25 12-46 22-124 48-178 59l-215 44 114-212c-54 13-140 27-211 34l-233 22 67-211c22-68 54-170 71-226 18-59 49-157 152-157 32 0 70 10 129 33 128 51 475 118 609 118 66 0 135 0 161 53 19 39 0 78-23 110 60-2 162 9 243 25 61 12 104 18 131 18h9c-2-51-69-203-215-372-82-95-169-211-207-277-6 21-9 38-9 44 0 83-65 86-72 86-26 0-50-12-97-41-25-15-56-38-83-62l21 169-193-107c-52-29-118-81-143-125-12-20-98-117-211-230-21-21-204-206-223-297-8-39-27-108-42-151-48-146-38-283 28-375 53-74 138-114 240-114 95 0 177 34 230 96 50 57 71 134 59 216-1 4-1 8-2 12 51-10 122-19 169-24 85-8 178-30 210-45 57-27 169-42 245-42 152 0 245-40 319-139 43-57 41-62 26-99l-59-147 242-27c55-6 101-9 141-9 133 0 222 33 320 117 66 57 97 60 102 60 8 0 26-29 26-114 0-68 0-171 111-171 35 0 81 11 142 28 76 20 174 83 256 164l65 64 20-37c31-58 50-111 51-124 0-66 46-90 86-90 15 0 32 3 54 9 138 41 281 123 364 211 51 54 72 63 148 63 74 0 98-7 172-77l230-218-49 287c-25 147-82 256-205 388l-53 57 24 31c125 161 138 293 123 737-15 452-22 459-43 479l-17 16h-25c-5 0-10 0-17-2v19c0 42 12 108 26 142 75 181 78 225 55 260-20 30-60 39-95 19-23-13-46-27-70-42 2 15 5 32 6 50 6 63 34 143 64 182l124 165 617 16c212 5 339 8 439 8 219 0 309-11 430-36 190-40 351-47 786-43 95 1 174 2 242 2 286 0 352-11 533-60 301-83 369-121 447-208 89-100 126-221 101-332-25-108-103-195-222-244-71-30-199-47-351-47-142 0-295 15-430 42-286 58-573 88-832 88-300 0-560-40-752-117-234-94-326-127-375-127-12 0-23 2-38 8-58 21-91 75-97 161-2 33-10 135-83 135-21 0-48 0-140-126-107-146-115-344-19-493l32-50-54-64c-309-366-303-782 17-1086 178-169 494-322 769-373 80-15 190-22 318-22 259 0 539 31 695 77 377 111 897 413 1325 770 243 202 399 309 465 317-17-73-1-132 54-198 51-61 120-95 195-95 93 0 178 53 226 142 65 120 66 251 1 360-70 118-205 189-361 189-228 0-387-73-630-291-158-142-288-247-367-305 24 84 70 196 94 218 23 18 73 56 55 107-7 22-30 46-69 46-13 0-52 0-188-58-144-62-265-159-338-269-22 54-59 124-93 159-64 68-230 143-318 143-15 0-60 0-80-40-22-44 8-84 43-131 26-35 63-118 79-177 25-95 24-106-23-199-46-90-105-147-209-197 61 132 50 349-27 467-74 113-218 206-366 235l-225 45 140-232c76-125 82-299 15-403-62-96-268-217-347-217h-9c1 14 4 32 5 45 15 114-26 228-73 282-31 35-62 43-82 43-22 0-75-9-98-93-14-51-87-55-108-55-30 0-62 6-96 17-102 34-172 104-192 192-20 87 11 179 86 252 23 22 43 40 58 54 6-8 12-18 19-29 70-116 221-194 376-194 73 0 141 18 195 52l165 102-220 105c-161 77-159 161-135 234 13 38 35 83 53 111 61-82 193-196 260-196 8 0 16 1 23 3 49 15 78 68 85 110 19 118 27 130 120 179 87 46 124 55 352 55h47c170-1 419-22 565-48 150-27 412-49 585-51h71c221 0 278 10 438 80 273 119 451 335 488 594 36 255-71 507-294 693l-99 82 77 103c64 85 151 240 195 344 71 171 80 232 79 537-1 377-24 484-225 1043-190 528-215 841-92 1117 53 119 135 196 209 196 104 0 135 62 144 89 32 100-58 248-225 367-168 120-195 178-193 302 2 97 41 185 169 377 28 42 69 128 46 186-13 32-49 70-146 70-90 0-224-34-297-97-3-2-5-4-7-6-43 66-117 105-204 105-71 0-143-26-203-74l-42-33-41 33c-60 49-131 76-197 76-73 0-137-33-176-90l-11-17-51 33c-80 51-132 73-172 73z"/><path fill="#ffb700" d="m18240 18260 102-65 69 65c90 86 196 84 283-5 38-39 72-66 76-60s21 35 38 64c22 37 66 56 146 61 96 7 122-3 160-58l46-66 100 64c274 176 420-9 298-377-62-187-28-292 173-531 85-101 154-208 154-238 0-49-16-55-128-53-108 2-139-9-196-72-92-102-87-218 16-347l82-103-146-99c-80-55-226-184-322-287-218-232-432-342-714-367l-189-17v143c0 184 87 362 323 662 269 342 287 394 298 841l9 378-78 74c-70 67-102 75-328 88-216 12-261 24-324 80-84 74-109 115-135 218-15 60-9 73 34 73 29 0 98-29 154-65z"/><path d="m19142 18115 149 96c74 48 124 58 153 58 30 0 51-10 67-32 42-59 38-183-12-333-69-208-30-335 184-589 72-85 119-159 135-192-13-1-35-1-62 0h-23c-106 0-153-20-219-92-65-71-149-221 14-425l42-52-92-63c-84-57-233-189-333-296-207-221-409-325-675-348l-124-11v77c0 168 84 338 310 625 277 352 300 417 311 877l10 404-97 92c-87 82-135 91-366 105-210 12-240 22-288 65-73 64-92 94-114 178 24-9 60-25 95-48l141-91 103 98c66 63 135 62 199-4 77-79 101-79 117-79h33l19 29c4 6 21 35 39 65 10 17 43 28 98 31 17 1 31 2 41 2 39 0 44-4 65-34l79-114zm302 274c-66 0-139-26-218-77l-51-33-12 18c-44 63-87 86-164 86-14 0-30-1-50-2-68-5-152-19-193-91-1-2-3-4-4-7-5 4-9 9-14 14-55 56-120 86-186 86-64 0-127-27-181-79l-35-33-62 40c-40 26-131 75-187 75-16 0-58 0-84-33s-18-75-8-114c29-115 61-166 154-248 80-71 144-82 361-95 229-13 238-22 291-72l58-55-9-351c-11-435-24-473-285-805-244-311-335-500-336-699v-209l255 23c298 26 523 142 752 386 93 99 236 227 312 278l200 136-123 154c-109 137-67 216-19 269 40 44 54 52 130 52h55c62 0 156 0 156 114 0 74-140 244-168 277-199 236-214 317-162 473 64 192 62 349-4 441-38 53-97 82-165 82z"/><path fill="#ffb700" d="M12468 17285c24-32 44-85 44-116 0-48 21-60 126-75l126-18-84-67c-100-80-109-142-21-142s237-91 259-159c11-31 4-73-15-95-49-56-142-48-159 15-18 67-49 67-120 1-105-100-108-307-5-427 49-57 48-60-14-119-67-63-114-188-83-217 10-9 63-2 117 17 77 26 108 27 139 2 96-76-8-173-162-152-62 9-88 0-97-32-7-24-61-56-122-72-109-28-110-27-110 48 0 83-47 98-137 45-73-43-143-10-143 68 0 72 73 108 203 100 100-6 104 68 9 175l-68 77 54 78c80 115 73 306-14 401l-69 74-45-60c-63-83-148-77-172 11-15 58-3 85 70 146 49 41 120 75 158 75 95 0 91 75-7 150l-77 59 119 18c66 10 119 29 119 42 0 51 83 208 109 208 15 0 47-27 71-59z"/><path d="M12195 17036c135 24 153 65 153 99 1 22 33 91 58 131 5-5 10-11 14-17 18-25 32-65 32-81 0-105 87-122 167-133-67-60-92-115-75-164 9-24 35-65 116-65 70 0 190-81 202-118 4-13 0-31-3-36-9-10-23-17-37-17-1 0-16 0-19 8-22 78-66 94-99 94-44 0-84-32-120-66-129-122-133-365-9-510 3-4 8-10 13-15-7-7-16-16-22-21-61-58-111-161-111-230 0-39 16-62 29-75 22-21 51-21 60-21 30 0 74 9 118 24 21 7 52 17 69 17 5 0 8 0 14-5 12-10 14-16 14-16-3-8-36-31-97-31-11 0-23 1-35 2-18 2-33 4-47 4-73 0-102-38-114-72-10-9-40-26-81-37-12-3-24-6-35-9-1 99-58 135-112 135-33 0-71-13-116-39-12-7-23-11-33-11-6 0-20 0-20 27 0 38 82 41 107 41 10 0 21 0 32-1 89-6 121 38 132 63 25 56 0 127-75 212l-37 41 27 39c96 138 87 361-19 477l-118 127-88-117c-21-28-40-35-48-35-10 0-16 19-18 25-7 28-9 34 51 85 45 38 103 61 120 61 90 0 116 50 124 72 17 49-6 105-63 159zm202 367c-73 0-143-155-163-234-15-5-40-12-74-18l-258-40 189-145c22-17 35-31 43-42-60 0-144-45-197-89-80-68-114-116-89-207 19-71 70-115 134-115 52 0 104 30 144 83l2 2 20-21c68-74 72-235 9-326l-81-117 100-112c33-37 46-62 51-75h-11c-14 1-27 1-40 1-211 0-227-123-227-161 0-85 59-147 140-147 31 0 64 9 94 27 22 13 37 19 45 21 0-4 1-8 1-14 0-41 0-125 87-125 24 0 52 7 98 19 23 6 136 37 163 105 7 0 19-1 33-3 17-2 34-4 51-4 104 0 186 45 210 114 18 52-2 108-54 148-27 21-55 31-89 31-28 0-59-7-108-23-15-5-29-9-41-12 11 33 35 81 68 112 79 75 93 115 18 202-82 96-82 266 1 344 9 9 16 15 22 20 18-54 70-89 132-89 49 0 95 21 128 58s44 102 27 154c-31 93-191 188-297 199 9 10 22 22 39 36l193 154-264 38c-45 6-65 12-75 15v1c0 51-28 115-55 152-15 20-66 83-120 83z"/><path fill="#ffb700" d="M14020 16612c108-43 342-241 342-290 0-15-65-86-144-158-166-150-347-404-394-552-24-77-143-209-475-532l-443-429-128 32c-70 18-156 33-190 33-59 1-58 4 21 65l83 64 117-65c113-63 117-63 131-13 8 30-9 81-41 119-30 37-48 78-38 92 9 14-20 44-65 66-83 41-141 175-75 175 59 0 189-161 174-215-8-28-4-56 8-64 51-30 48 96-4 158-30 37-48 78-38 92 9 14-20 44-65 66-83 40-141 175-76 175 64 0 192-153 176-211-8-30-5-60 7-68 34-20 53 80 24 128-15 26-15 62 0 90 28 51 0 150-53 180-22 13-7 39 47 80 79 59 80 66 80 327 0 219 9 275 49 313 45 43 49 43 49 2 0-45 79-100 143-100 19 0 137 100 263 223 127 124 259 229 297 235 37 7 78 14 90 16s69-15 126-37z"/><path d="m12685 14765 13 10 34-19c-16 3-31 6-47 9zm1131 1810c31 6 64 11 80 14 14-3 52-14 101-33 83-33 250-172 296-231-19-23-59-65-116-117-176-159-361-419-411-578-23-74-193-249-460-507l-309-300c-6 25-17 50-30 72 9 8 16 17 21 29 22 48 11 129-24 188 7 6 13 14 18 23 24 43 29 124-3 178-4 7-5 19 1 30 36 66 17 169-37 229 4 3 9 7 15 12 104 79 104 112 104 376 0 126 3 195 12 233 40-46 109-77 168-77 18 0 59 0 305 240 129 125 239 209 267 219zm79 135c-5 0-9 0-12-1-12-2-53-9-90-16-84-15-303-227-328-251-112-109-201-184-232-205-31 5-65 29-72 42-1 76-43 87-68 87-32 0-53-20-83-49-59-56-68-130-68-357 0-237 0-237-56-280-44-33-84-70-81-117 2-26 16-49 40-62 26-15 42-78 30-99 0-1-1-1-1-2-34 39-94 93-153 93-43 0-76-26-85-66-10-44 12-104 51-153-25-10-44-32-51-60-16-71 50-181 135-222 13-6 22-12 29-17-2-51 39-106 55-125 9-11 16-24 21-35-12 7-25 14-36 20l-151 84-115-89c-64-49-99-76-83-125 16-47 63-47 98-48 26 0 105-13 176-31l160-41 467 453c348 337 462 467 491 557 44 138 220 383 377 525 163 148 163 185 163 203 0 96-283 307-381 346-25 10-109 42-146 42z"/><path fill="#ffb700" d="M12666 15553c0-71-146-146-320-165-141-16-143-15-143 55 0 58 22 81 119 123 156 68 343 61 343-13z"/><path d="M12264 15440v3c0 24 0 32 83 68 60 26 132 42 192 42 31 0 52-4 63-8-21-26-110-80-261-97-33-4-58-6-76-7zm275 233c-77 0-164-19-240-52-91-40-155-76-155-178 0-40 0-124 107-124 24 0 55 3 103 9 185 21 373 105 373 225 0 43-26 80-72 100-30 13-69 20-116 20z"/><path fill="#ffb700" d="M12826 15547c71-64 105-141 62-141-49 0-180 117-180 161 0 69 24 65 118-20z"/><path d="M12728 15675c-24 0-80-11-80-108 0-82 163-221 240-221 34 0 62 19 74 49 30 78-74 178-95 197-62 57-99 84-138 84z"/><path fill="#ffb700" d="M12674 15338c6-40-19-66-92-100-159-72-350-105-395-69-84 66-28 155 108 171 55 6 129 23 166 37 105 41 205 22 214-40z"/><path d="M12222 15218c-11 9-16 17-15 20 3 10 31 35 95 43 60 7 139 25 180 41 30 12 59 18 86 18 32 0 46-9 47-11v-1s-7-11-58-34c-102-46-227-78-303-78-20 0-29 2-32 3zm346 242c-41 0-86-9-129-26-31-12-102-28-151-34-102-12-177-62-197-130-15-54 6-108 58-149 24-19 58-27 105-27 93 0 235 36 353 89 46 21 142 64 127 164-10 68-75 113-166 113z"/><path fill="#ffb700" d="M12674 15125c9-57-28-77-324-181-221-78-319-41-249 93 25 47 66 68 159 82 69 10 163 31 210 45 124 38 195 25 205-39z"/><path d="M12139 14966c1 7 4 21 16 42 10 20 26 37 114 51 72 11 170 32 218 47 50 15 81 19 98 19 19 0 27-4 28-5 0 0 0-1 1-4-29-25-182-79-285-116-131-46-178-38-191-34zm446 279c-37 0-82-8-134-24-43-13-135-33-201-43-93-14-164-39-203-114-34-65-39-120-13-162 16-27 52-60 131-60 53 0 122 15 205 44 293 103 381 134 364 247-10 70-66 111-148 111z"/><path fill="#ffb700" d="M12823 14925c45-45 81-99 81-119 0-65-177 50-199 130-27 96 17 92 118-11z"/><path d="M12714 15065c-24 0-46-11-60-29-26-34-17-80-7-116 25-89 165-193 237-193 46 0 80 33 80 79 0 57-76 138-99 161-68 69-113 98-152 98z"/><path fill="#ffb700" d="M12674 14912c10-65-98-123-309-168-155-33-224-14-212 58 6 39 58 68 205 114 235 73 305 72 317-4z"/><path d="M12213 14791c9 10 44 30 162 67 71 22 171 51 222 51 9 0 14-1 16-1 0-1 0-2 1-3-4-7-42-55-262-102-45-10-82-14-109-14-15 0-25 2-30 3zm384 239c-54 0-128-16-258-57-157-49-234-86-246-162-8-49 9-80 24-98 26-31 67-46 126-46 36 0 80 6 134 17 163 35 377 97 356 236-6 41-32 109-136 109z"/><path fill="#ffb700" d="M12881 14611c271-121 295-425 39-505-106-33-174-15-215 57-31 55-10 155 32 155 14 0 26 19 26 41 0 106-414 154-584 68-60-30-86-109-36-109 37 0 63-80 44-136-26-77-103-104-216-74-254 66-247 365 12 492 212 104 677 110 897 12z"/><path d="M12054 14155c-20 0-42 3-67 10-82 22-134 74-141 143-9 90 55 183 164 236 97 47 262 76 443 76 162 0 313-24 404-65 116-52 187-146 182-240-4-71-54-126-136-152-28-9-53-13-73-13-34 0-54 12-71 42-11 19-8 52-2 68 39 10 68 50 68 99 0 136-250 172-398 172-64 0-185-7-273-51-64-33-106-104-93-159 8-33 34-56 67-62 6-13 10-39 3-59-7-21-22-45-77-45zm399 585c-201 0-381-32-496-88-154-76-245-215-231-356 12-121 98-213 230-248 35-9 67-14 97-14 94 0 164 46 191 127 19 56 9 128-23 173-8 12-18 21-29 28 4 4 9 7 14 10 48 24 127 38 218 38 129 0 225-26 263-47-14-9-25-22-35-38-28-47-36-132-2-193 38-68 99-103 176-103 33 0 68 6 109 19 131 41 213 138 221 260 8 145-91 285-253 357-107 48-272 75-453 75z"/><path fill="#ffb700" d="M12713 14377c16-15 9-38-17-58-58-45-55-113 9-190 47-58 53-145 70-1019 28-1507 140-2640 288-2912 59-108 51-109-101-5-196 133-345 307-477 555-249 469-336 1099-336 2445 0 764 5 864 49 936 41 68 44 93 15 166-19 47-27 92-19 100 56 53 461 39 521-18z"/><path d="M12254 14356c28 6 77 12 147 12 102 0 187-11 235-22-23-25-37-55-41-88-6-53 15-109 62-167 35-43 42-212 56-982 26-1401 123-2464 257-2850-177 126-311 286-434 517-243 457-329 1089-329 2417 0 729 5 847 40 905 51 84 55 129 19 220-6 15-10 29-13 39zm148 132c-198 0-238-37-251-49-12-12-45-43 4-166 22-55 22-61-10-113-52-86-57-176-57-967 0-1350 90-1997 343-2473 136-255 293-438 496-576 102-70 131-87 163-87 24 0 45 12 57 32 23 38 2 76-32 139-143 263-253 1395-281 2884-17 913-23 982-83 1056-25 30-38 59-36 77 1 6 3 16 18 27 38 30 48 62 49 83 1 14-2 28-8 41v8l-19 18c-68 64-306 67-353 67z"/><path fill="#ffb700" d="M14991 12940c8-13-10-79-42-146-49-105-69-122-139-122-219 0-570-98-933-259-209-93-282-115-307-91-64 61 42 205 207 280 146 67 555 150 741 150 108 0 111 5 49 94l-45 65 122 3c67 2 160 12 206 23 120 29 121 29 138 3z"/><path d="M13613 12374c7 32 66 116 191 173 133 61 513 139 698 144-192-44-417-121-648-223-53-24-186-83-241-93zm1023 479h11c72 2 168 13 219 25 21 5 41 10 57 13-6-19-16-44-29-73-41-88-45-88-84-88-49 0-103-4-162-13 5 5 9 11 13 18 20 38 3 74-25 116zm325 46v60-60zm0 120c-25 0-56-7-123-24-42-10-131-20-194-22l-234-6 108-156c-197 0-611-84-766-155-137-63-244-172-259-265-7-44 5-85 36-113 18-17 41-25 70-25 50 0 127 27 303 105 352 157 699 254 908 254 108 0 143 50 193 157 71 153 47 190 38 204-10 15-30 46-79 46zm1307 600c0-39-114-144-230-212-91-53-106-55-106-11 0 66-59 232-82 232-13 0-32-32-43-72s-55-118-98-174l-79-102-61 94c-57 88-157 174-201 174-10 0-13-46-5-103 9-61 2-110-17-121-17-10-31-7-31 8 0 33-138 189-167 189-12 0-29-45-37-100-9-55-23-141-32-192s10-16 44 77l60 170 66-104c36-57 66-119 66-138s12-28 27-19 36 77 46 152l19 136 73-80c40-44 87-103 104-131 31-50 33-50 94 2 34 29 87 99 118 155 30 56 59 98 64 93s16-63 25-129 16-122 17-125c4-16 219 124 299 194 51 45 100 76 108 69 8-8 15-75 15-149 0-115-12-146-83-209-81-72-83-73-113-20-39 69-85 70-85 2 0-50-153-240-193-240-10 0-43 42-72 93s-60 93-69 93c-39 0-255-241-255-284 0-35 15-26 52 32 29 44 86 109 127 145 84 73 114 55 147-86 9-40 25-73 36-73 36 0 224 199 250 265l27 66 20-73c25-89 52-93 91-11 16 34 97 105 180 157l150 95 30-96c17-53 38-83 49-67 15 23-24 182-53 216-4 5-53-23-108-63l-100-72v129c0 71-8 156-17 189-18 64-66 82-66 25z"/><path d="M16114 13343c57 40 108 79 127 96 8 7 15 13 22 18 1-16 1-34 1-54 0-101-8-115-63-164-8-8-18-16-27-24-12 18-24 33-38 45l-23 83zm173 370c-37 0-76-27-79-88-14-27-97-107-201-168-9-5-16-9-23-13-16 84-58 242-135 242-63 0-92-82-101-117-8-28-47-100-87-152l-27-35-15 23c-46 71-142 172-220 196l-33 36-4-31c-16-2-32-9-43-22-9-10-28-32-19-121-4 5-8 9-12 14-41 46-69 72-90 86l-31 48-11-31h-8c-31 0-76-16-97-150-8-54-23-140-32-191-3-19-9-48 12-72l18-22h29c49 0 65 41 101 141l19 54c32-51 53-96 57-110 2-45 34-78 76-78 14 0 29 4 42 12 35 20 60 86 75 196l1 9c36-41 72-87 84-107 17-28 38-61 79-65l13-20 18 23c24 7 44 25 74 50 33 28 77 83 110 136 14-103 15-108 16-111 7-27 32-46 61-46 30 0 105 44 177 93l-13-34c-28-1-54-17-69-43-10-17-15-39-16-64-9-32-79-124-123-166-8 12-18 27-29 46-70 123-100 123-122 123-20 0-56 0-187-146-128-143-128-182-128-199 0-79 65-80 67-80 40 0 65 33 96 79 26 39 79 100 117 133 12 10 20 17 26 21 5-12 13-34 22-75 18-79 50-120 94-120 63 0 195 145 264 237 15-26 38-48 75-48 59 0 89 63 103 93 9 17 71 77 158 133l84 53 7-21c24-76 57-114 100-114 23 0 44 12 57 31 38 59-24 249-58 289l-18 21-29 1c-13 0-38 0-141-75l-5-4v12c0 67-7 162-20 205-18 63-59 103-105 103zm-767-1124c-178-149-205-183-201-253l4-75 12 72c7 42 54 106 114 152l102 80 63-73c35-40 63-88 64-106 1-48 10-44 131 61 107 93 109 93 125 33 9-34 6-97-7-141-35-120-28-138 25-66 26 36 69 87 94 113 44 46 47 45 64-13 9-34 17-95 18-137v-76l97 110c90 102 99 106 126 57 16-29 30-98 30-153 0-72 8-90 26-63 31 46 9 170-47 276l-40 76-53-83c-68-106-91-104-134 10-41 108-68 116-108 33-26-54-31-47-49 66l-20 125-123-95-123-95-55 63c-30 35-56 78-56 96-1 40-31 41-76 3z"/><path d="m15996 12727-281-218-18 20c-22 25-38 52-41 62-4 58-45 85-82 85-28 0-58-14-92-41-170-142-229-197-223-303l4-75 120-6 12 72c3 21 37 72 92 115l57 45 25-29c28-32 45-62 50-73 4-74 51-83 71-83 36 0 63 22 159 105 10 9 20 18 30 26 0-23-3-50-10-71-27-94-33-130-10-160 12-16 31-26 51-26 37 0 62 29 90 67 16 22 40 51 60 75 4-26 6-55 7-77l1-233 201 228c10 11 24 28 38 42 7-25 13-63 13-99 0-50 1-135 73-135 25 0 46 13 63 39 50 74 15 226-44 338l-89 167-109-169c-7-11-13-19-17-26-3 7-6 15-10 25-18 48-49 128-116 128-17 0-31-5-43-12l-32 197zm1109-692c-65-58-110-114-99-124 10-10 22-12 26-6s57 62 118 124c140 142 111 146-44 6z"/><path d="M17238 12198c-21 0-41 0-173-118-120-108-120-148-121-164 0-19 7-36 20-49 18-17 39-26 60-26 23 0 43 11 56 29 8 10 51 55 112 117 103 104 120 133 103 173-10 23-32 38-58 38zm-2244-382c-59-80-55-133 17-219 52-62 76-71 166-59 58 7 183 59 278 114 109 64 223 107 310 117 76 9 138 13 138 8s-32-56-70-114c-92-137-88-152 15-70 106 84 233 109 516 101l138-4-80-79c-112-111-78-121 46-13 116 101 109 108-136 132-104 10-216 3-309-21-139-35-144-35-118 12 15 27 40 49 55 49s27 14 27 30c0 51-300 6-444-66-328-166-369-180-447-156-43 14-87 54-102 94-50 134 140 238 218 120 23-34 17-58-22-100-55-57-50-65 24-39 52 19 59 145 11 191-56 53-183 38-231-27z"/><path d="M15093 11645c-19 12-36 31-42 47-8 20-5 39 6 57 14 20 39 34 62 34 18 0 32-8 43-25 1-1 2-2 2-3-2-4-7-10-18-21-25-26-52-55-54-88zm37 291c-76 0-147-32-185-84-76-103-71-185 19-293 46-55 85-86 158-86 17 0 36 1 62 5 74 9 211 69 301 122 103 60 207 100 287 110 7 1 14 2 21 2-3-5-7-10-10-16-69-104-90-140-68-180 11-21 33-34 57-34 27 0 50 13 114 64 82 66 182 89 381 89 29 0 60 0 94-2-55-57-78-94-62-133 10-24 33-39 60-39 16 0 45 0 149 90 57 50 107 93 91 149l46 45-83 3c-39 23-108 30-223 41-97 10-203 5-294-14 2 8 3 16 3 24 0 31-17 82-128 82-104 0-291-38-403-95-86-44-154-77-207-102 2 5 3 11 4 16 12 59 3 140-47 187-33 31-81 48-136 48z"/><path d="M16286 11486c-41-39-9-48 175-52 227-4 366-42 529-145 131-82 166-66 42 19-113 78-289 138-460 156-82 9-176 21-209 27-32 6-67 3-77-6z"/><path d="M16328 11555c-37 0-66-9-84-26-40-38-38-71-30-93 22-56 87-60 245-63 218-4 343-38 498-136 100-63 132-63 145-63 30 0 55 18 64 45 15 48-24 85-100 138-121 83-308 147-487 167-80 9-173 21-204 27-15 3-31 4-46 4z"/><path fill="#ffb700" d="m14302 18271 94-54 40 55c54 73 203 72 301-2l76-56 63 56c83 74 238 74 337 0 69-52 79-53 125-13 27 23 108 50 178 59 127 17 129 16 204-96 62-94 72-131 57-222-10-60-20-157-24-215-6-105-5-106 148-160 85-30 183-69 218-88 61-33 230-232 230-271 0-10-66-26-147-35-321-36-375-208-167-529 340-522 546-1031 547-1355 1-145 9-193 27-162 76 129-60 668-267 1056l-83 156 79-18c44-10 300-118 570-240 738-334 992-400 1470-380 400 17 571 95 854 392 150 157 294 269 558 435 562 352 586 382 612 796 27 419 14 442-304 512-271 60-441 186-487 362-24 94 27 96 164 9l100-64 45 64c59 85 183 85 286 1l78-64 80 64c124 99 289 75 335-49 9-24 33-16 81 26 91 79 323 112 348 51 10-24-9-82-40-130-135-203-177-299-179-409-2-153 43-227 218-352 212-152 277-347 116-347-99 0-200-88-264-231-130-291-105-618 91-1161 198-552 220-654 221-1023 1-298-7-350-75-514-42-100-126-249-187-331l-112-149 143-119c438-363 348-957-179-1185-161-70-202-76-484-74-170 1-428 23-575 50-149 27-402 48-575 49-275 1-322-6-428-62-111-59-130-87-151-223-4-28-24-56-43-62-38-12-211 139-237 206-13 33-23 31-60-13-25-29-59-96-77-149-44-133 10-232 166-307l121-58-71-44c-147-91-398-29-489 122-26 43-54 78-62 78-9 0-57-41-108-90-190-186-125-461 130-545 136-45 256-11 281 80 38 138 157-43 135-207-14-109-12-113 63-113 105 0 328 138 397 245 80 125 74 321-14 467l-69 115 91-18c133-27 262-109 328-209 69-106 77-312 15-423-59-108-53-125 35-88 149 62 229 130 289 247 54 105 57 132 28 241-18 68-58 157-89 198-48 64-50 75-11 75 72 0 221-68 274-124 27-29 66-99 87-156l38-104 44 79c62 112 182 213 329 276 158 68 224 71 141 8-56-43-158-344-127-373 18-17 233 148 477 367 231 208 377 276 590 276 272 0 430-236 308-460-71-130-230-148-322-37-43 51-54 92-42 146 15 66 9 75-51 75-79 0-235-101-511-332-421-352-934-650-1303-759-237-70-744-97-985-53-261 48-570 197-738 357-298 283-303 661-13 1004l83 98-56 87c-82 127-75 298 17 424 41 56 82 101 91 101s20-36 23-79c8-110 55-184 137-213 73-26 120-14 456 120 353 141 932 150 1549 26 302-61 659-57 815 8 287 120 354 434 143 671-91 103-180 145-476 226-225 62-279 66-791 61-438-4-595 4-774 41-194 40-313 45-883 30l-659-17 73 60c40 33 97 74 126 91 50 29 48 32-26 60-43 16-140 29-214 29h-135l-18 115c-10 63-9 137 2 164 16 40 10 46-32 30-28-10-108-31-176-45-68-15-160-44-204-66-74-36-82-35-110 13-24 43-253 214-287 214-5 0-12-33-16-73-3-40-36-145-73-232-37-88-76-183-86-212-16-44-23-46-41-13-12 22-30 82-40 133s-44 134-77 184l-59 92-38-78c-40-84-107-171-132-171-8 0-22 27-31 60-18 69-177 259-216 259-14 0-26-54-26-119 0-66-13-119-28-119s-28 17-28 38c0 51-136 201-181 201-20 0-52 18-71 40-50 57-91 49-70-14 10-29 3-98-14-153-18-55-37-113-42-129-7-21-55-15-158 18-166 53-222 44-137-23 31-24 79-109 106-189 27-79 67-149 88-156 30-9 29 2-7 50-25 34-46 81-46 103s-19 75-43 117c-23 42-38 81-33 86s69-19 141-53l131-63 1 56c0 31 16 112 35 181l35 125 89-41c91-42 177-191 177-307 0-57 33-48 46 12 4 18 24 85 46 149l39 116 61-73c34-40 76-120 93-176 31-98 80-140 80-69 0 51 140 235 167 219 13-8 39-77 58-153 39-160 102-268 141-245 15 9 21 26 13 38s24 116 72 230c47 115 95 230 105 257 17 42 33 36 134-53 63-56 120-118 127-138 10-31 24-30 83 7 82 51 359 134 381 113 8-8 16-80 18-162l4-148 80 17c44 9 136 9 205-1l125-18-111-76c-61-42-123-96-138-121-15-26-70-48-132-53-167-14-463-180-463-260 0-15 41 10 91 56 111 102 266 166 400 166h101l-62-83c-36-48-68-138-76-213-12-119-25-138-148-224-74-52-167-129-205-172l-70-78-35 93c-20 51-43 93-53 93s-47-30-83-66-73-66-82-66-41 49-71 109l-55 109-43-63c-23-35-79-96-123-136s-67-73-52-73c16 0 70 42 121 93l93 93 38-68c22-40 31-102 21-153-15-73-13-77 15-31 18 29 72 85 120 124l88 71 61-111c60-111 61-111 88-45 37 88 303 306 529 434 35 20 20-48-44-203-17-41-31-115-31-165 0-73-21-106-115-177-135-103-179-176-205-343-10-67-34-142-53-167-28-36-32-16-25 109 5 84-6 189-24 233l-33 80-26-66c-14-36-77-100-140-141s-107-82-98-90 73 29 143 83c106 83 130 91 145 55 17-43 0-229-33-359-17-65-15-64 65 16 59 59 92 129 117 252 32 156 48 182 193 309 87 76 162 134 167 129 6-5 16-202 24-437 15-451-2-558-111-698l-56-72 88-95c114-123 167-222 190-357l19-110-99 94c-81 77-120 94-214 94-93 0-129-16-192-82-75-80-208-157-337-195-47-14-63-8-63 24 0 23-26 91-58 151l-58 108-122-120c-75-74-163-131-229-149-168-44-178-40-178 86 0 190-81 226-228 99-111-96-204-117-415-94l-163 18 29 74c25 62 19 87-34 157-85 113-196 163-367 163-79 0-177 16-219 36s-145 43-230 51-175 23-201 32c-40 15-45 3-32-89 20-140-78-243-230-243-197 0-289 177-211 410 15 45 34 116 43 157 9 43 98 158 207 267 105 105 204 214 220 243s70 74 120 102l90 50-12-96c-13-106 10-123 66-48 20 27 71 70 114 96 67 41 77 42 77 6 0-23 14-75 30-116l30-75 53 102c29 56 123 183 209 282 167 193 268 408 216 458-21 20-79 19-198-5-92-19-206-28-254-22-96 13-104 1-45-73 63-78 53-91-70-91-142 0-496-68-631-122-132-52-162-39-201 86-17 56-49 158-71 227l-39 124 143-14c78-8 179-25 224-38s86-21 91-16-15 53-44 108l-53 99 89-18c49-10 123-34 164-54 71-35 77-32 134 58 69 111 125 107 137-11 13-122 53-104 128 58 73 155 148 210 163 118 5-31 44-80 87-111 87-61 152-43 190 53 39 99-48 202-300 355-505 306-798 725-882 1258-76 481 160 979 634 1336 227 171 587 351 564 282-97-292-94-850 5-944 15-14 10 44-11 129-79 318-45 571 158 1164 183 536 158 766-101 917-83 49-137 57-360 54-243-3-269 2-347 64-75 60-173 258-173 350 0 50 55 43 164-20z"/><path fill="#ffb700" d="m18240 18260 102-65 69 65c90 86 196 84 283-5 38-39 72-66 76-60s21 35 38 64c22 37 66 56 146 61 96 7 122-3 160-58l46-66 100 64c274 176 420-9 298-377-62-187-28-292 173-531 85-101 154-208 154-238 0-49-16-55-128-53-108 2-139-9-196-72-92-102-87-218 16-347l82-103-146-99c-80-55-226-184-322-287-218-232-432-342-714-367l-189-17v143c0 184 87 362 323 662 269 342 287 394 298 841l9 378-78 74c-70 67-102 75-328 88-216 12-261 24-324 80-84 74-109 115-135 218-15 60-9 73 34 73 29 0 98-29 154-65zm-5772-975c24-32 44-85 44-116 0-48 21-60 126-75l126-18-84-67c-100-80-109-142-21-142s237-91 259-159c11-31 4-73-15-95-49-56-142-48-159 15-18 67-49 67-120 1-105-100-108-307-5-427 49-57 48-60-14-119-67-63-114-188-83-217 10-9 63-2 117 17 77 26 108 27 139 2 96-76-8-173-162-152-62 9-88 0-97-32-7-24-61-56-122-72-109-28-110-27-110 48 0 83-47 98-137 45-73-43-143-10-143 68 0 72 73 108 203 100 100-6 104 68 9 175l-68 77 54 78c80 115 73 306-14 401l-69 74-45-60c-63-83-148-77-172 11-15 58-3 85 70 146 49 41 120 75 158 75 95 0 91 75-7 150l-77 59 119 18c66 10 119 29 119 42 0 51 83 208 109 208 15 0 47-27 71-59zm1552-673c108-43 342-241 342-290 0-15-65-86-144-158-166-150-347-404-394-552-24-77-143-209-475-532l-443-429-128 32c-70 18-156 33-190 33-59 1-58 4 21 65l83 64 117-65c113-63 117-63 131-13 8 30-9 81-41 119-30 37-48 78-38 92 9 14-20 44-65 66-83 41-141 175-75 175 59 0 189-161 174-215-8-28-4-56 8-64 51-30 48 96-4 158-30 37-48 78-38 92 9 14-20 44-65 66-83 40-141 175-76 175 64 0 192-153 176-211-8-30-5-60 7-68 34-20 53 80 24 128-15 26-15 62 0 90 28 51 0 150-53 180-22 13-7 39 47 80 79 59 80 66 80 327 0 219 9 275 49 313 45 43 49 43 49 2 0-45 79-100 143-100 19 0 137 100 263 223 127 124 259 229 297 235 37 7 78 14 90 16s69-15 126-37zm-1354-1059c0-71-146-146-320-165-141-16-143-15-143 55 0 58 22 81 119 123 156 68 343 61 343-13z"/><path fill="#ffb700" d="M12826 15547c71-64 105-141 62-141-49 0-180 117-180 161 0 69 24 65 118-20zm-152-209c6-40-19-66-92-100-159-72-350-105-395-69-84 66-28 155 108 171 55 6 129 23 166 37 105 41 205 22 214-40zm0-213c9-57-28-77-324-181-221-78-319-41-249 93 25 47 66 68 159 82 69 10 163 31 210 45 124 38 195 25 205-39zm149-200c45-45 81-99 81-119 0-65-177 50-199 130-27 96 17 92 118-11zm-149-13c10-65-98-123-309-168-155-33-224-14-212 58 6 39 58 68 205 114 235 73 305 72 317-4zm207-301c271-121 295-425 39-505-106-33-174-15-215 57-31 55-10 155 32 155 14 0 26 19 26 41 0 106-414 154-584 68-60-30-86-109-36-109 37 0 63-80 44-136-26-77-103-104-216-74-254 66-247 365 12 492 212 104 677 110 897 12z"/><path fill="#ffb700" d="M12713 14377c16-15 9-38-17-58-58-45-55-113 9-190 47-58 53-145 70-1019 28-1507 140-2640 288-2912 59-108 51-109-101-5-196 133-345 307-477 555-249 469-336 1099-336 2445 0 764 5 864 49 936 41 68 44 93 15 166-19 47-27 92-19 100 56 53 461 39 521-18zm2278-1437c8-13-10-79-42-146-49-105-69-122-139-122-219 0-570-98-933-259-209-93-282-115-307-91-64 61 42 205 207 280 146 67 555 150 741 150 108 0 111 5 49 94l-45 65 122 3c67 2 160 12 206 23 120 29 121 29 138 3z"/><path d="M16268 13619c0-39-114-144-230-212-91-53-106-55-106-11 0 66-59 232-82 232-13 0-32-32-43-72s-55-118-98-174l-79-102-61 94c-57 88-157 174-201 174-10 0-13-46-5-103 9-61 2-110-17-121-17-10-31-7-31 8 0 33-138 189-167 189-12 0-29-45-37-100-9-55-23-141-32-192s10-16 44 77l60 170 66-104c36-57 66-119 66-138s12-28 27-19 36 77 46 152l19 136 73-80c40-44 87-103 104-131 31-50 33-50 94 2 34 29 87 99 118 155 30 56 59 98 64 93s16-63 25-129 16-122 17-125c4-16 219 124 299 194 51 45 100 76 108 69 8-8 15-75 15-149 0-115-12-146-83-209-81-72-83-73-113-20-39 69-85 70-85 2 0-50-153-240-193-240-10 0-43 42-72 93s-60 93-69 93c-39 0-255-241-255-284 0-35 15-26 52 32 29 44 86 109 127 145 84 73 114 55 147-86 9-40 25-73 36-73 36 0 224 199 250 265l27 66 20-73c25-89 52-93 91-11 16 34 97 105 180 157l150 95 30-96c17-53 38-83 49-67 15 23-24 182-53 216-4 5-53-23-108-63l-100-72v129c0 71-8 156-17 189-18 64-66 82-66 25zm-748-1030c-178-149-205-183-201-253l4-75 12 72c7 42 54 106 114 152l102 80 63-73c35-40 63-88 64-106 1-48 10-44 131 61 107 93 109 93 125 33 9-34 6-97-7-141-35-120-28-138 25-66 26 36 69 87 94 113 44 46 47 45 64-13 9-34 17-95 18-137v-76l97 110c90 102 99 106 126 57 16-29 30-98 30-153 0-72 8-90 26-63 31 46 9 170-47 276l-40 76-53-83c-68-106-91-104-134 10-41 108-68 116-108 33-26-54-31-47-49 66l-20 125-123-95-123-95-55 63c-30 35-56 78-56 96-1 40-31 41-76 3zm1585-554c-65-58-110-114-99-124 10-10 22-12 26-6s57 62 118 124c140 142 111 146-44 6zm-2111-219c-59-80-55-133 17-219 52-62 76-71 166-59 58 7 183 59 278 114 109 64 223 107 310 117 76 9 138 13 138 8s-32-56-70-114c-92-137-88-152 15-70 106 84 233 109 516 101l138-4-80-79c-112-111-78-121 46-13 116 101 109 108-136 132-104 10-216 3-309-21-139-35-144-35-118 12 15 27 40 49 55 49s27 14 27 30c0 51-300 6-444-66-328-166-369-180-447-156-43 14-87 54-102 94-50 134 140 238 218 120 23-34 17-58-22-100-55-57-50-65 24-39 52 19 59 145 11 191-56 53-183 38-231-27z"/><path d="M16286 11486c-41-39-9-48 175-52 227-4 366-42 529-145 131-82 166-66 42 19-113 78-289 138-460 156-82 9-176 21-209 27-32 6-67 3-77-6z"/></svg>