<svg width="27" height="24" viewBox="0 0 27 24" fill="none" xmlns="http://www.w3.org/2000/svg">
<path d="M25.7651 5.81639C25.4707 4.7078 24.6032 3.8347 23.5018 3.53841C21.5054 3 13.5 3 13.5 3C13.5 3 5.49472 3 3.49826 3.53841C2.39684 3.83475 1.52937 4.7078 1.23495 5.81639C0.700012 7.82578 0.700012 12.0182 0.700012 12.0182C0.700012 12.0182 0.700012 16.2106 1.23495 18.22C1.52937 19.3286 2.39684 20.1653 3.49826 20.4616C5.49472 21 13.5 21 13.5 21C13.5 21 21.5053 21 23.5018 20.4616C24.6032 20.1653 25.4707 19.3286 25.7651 18.22C26.3001 16.2106 26.3001 12.0182 26.3001 12.0182C26.3001 12.0182 26.3001 7.82578 25.7651 5.81639V5.81639ZM10.8818 15.8246V8.2118L17.5727 12.0183L10.8818 15.8246V15.8246Z" fill="black"/>
</svg>
